<svg width="17" height="14" viewBox="0 0 17 14" fill="none" xmlns="http://www.w3.org/2000/svg">
<path d="M13.8599 4.99009L13.6797 5.38627C13.6516 5.45078 13.6041 5.50589 13.5432 5.54465C13.4824 5.58341 13.4109 5.60409 13.3377 5.60409C13.2646 5.60409 13.1931 5.58341 13.1322 5.54465C13.0714 5.50589 13.0239 5.45078 12.9957 5.38627L12.8156 4.99009C12.4989 4.28923 11.9188 3.7273 11.1899 3.41517L10.6341 3.17788C10.5666 3.14824 10.5095 3.10073 10.4695 3.04099C10.4294 2.98126 10.4081 2.9118 10.4081 2.84085C10.4081 2.76991 10.4294 2.70045 10.4695 2.64071C10.5095 2.58098 10.5666 2.53347 10.6341 2.50382L11.1591 2.28053C11.9064 1.95952 12.4964 1.3768 12.8075 0.652421L12.9928 0.224745C13.02 0.158496 13.0675 0.10162 13.129 0.061531C13.1905 0.021442 13.2633 0 13.3377 0C13.4122 0 13.4849 0.021442 13.5464 0.061531C13.608 0.10162 13.6554 0.158496 13.6826 0.224745L13.8679 0.651721C14.1788 1.37624 14.7685 1.9592 15.5156 2.28053L16.0414 2.50452C16.1086 2.53426 16.1655 2.58176 16.2054 2.64142C16.2453 2.70107 16.2665 2.7704 16.2665 2.8412C16.2665 2.91201 16.2453 2.98133 16.2054 3.04099C16.1655 3.10065 16.1086 3.14815 16.0414 3.17788L15.4848 3.41447C14.7561 3.72691 14.1763 4.28909 13.8599 4.99009ZM14.8023 13.3V6.76169C14.3318 6.92015 13.8366 7.00086 13.3377 7.00038C12.5665 7.00056 11.8088 6.80671 11.1408 6.43831V11.2002H9.67621V6.30042H10.9079C10.3039 5.91721 9.80845 5.39709 9.46576 4.78644C9.12307 4.17578 8.94379 3.49356 8.9439 2.80061C8.9439 2.30993 9.03178 1.83886 9.19362 1.40068H0.888554C0.694335 1.40068 0.508071 1.47443 0.370737 1.6057C0.233403 1.73696 0.15625 1.915 0.15625 2.10064V13.3C0.15625 13.4857 0.233403 13.6637 0.370737 13.795C0.508071 13.9263 0.694335 14 0.888554 14H14.07C14.2643 14 14.4505 13.9263 14.5879 13.795C14.7252 13.6637 14.8023 13.4857 14.8023 13.3ZM3.81777 8.4003H5.28238V11.2002H3.81777V8.4003ZM6.74699 4.20053H8.2116V11.2002H6.74699V4.20053Z" fill="white"/>
</svg>
