<svg width="33" height="31" viewBox="0 0 33 31" fill="none" xmlns="http://www.w3.org/2000/svg">
<path d="M13.9917 22.025L26.6229 9.39375L24.1146 6.88542L13.9917 17.0083L8.88542 11.9021L6.37708 14.4104L13.9917 22.025ZM3.95833 30.625C2.97292 30.625 2.12964 30.2744 1.4285 29.5733C0.727361 28.8722 0.376194 28.0283 0.375 27.0417V1.95833C0.375 0.972917 0.726167 0.129639 1.4285 -0.5715C2.13083 -1.27264 2.97411 -1.62381 3.95833 -1.625H29.0417C30.0271 -1.625 30.871 -1.27383 31.5733 -0.5715C32.2756 0.130834 32.6262 0.974111 32.625 1.95833V27.0417C32.625 28.0271 32.2744 28.871 31.5733 29.5733C30.8722 30.2756 30.0283 30.6262 29.0417 30.625H3.95833Z" fill="#7671F4"/>
</svg>
