<svg width="25" height="22" viewBox="0 0 25 22" fill="none" xmlns="http://www.w3.org/2000/svg">
<path fill-rule="evenodd" clip-rule="evenodd" d="M24.5 11.2454C24.5 10.4807 24.4205 9.74543 24.2727 9.03955H12.5V13.2111H19.2273C18.9375 14.5592 18.0568 15.7013 16.733 16.466V19.1719H20.7727C23.1364 17.2945 24.5 14.5297 24.5 11.2454Z" fill="#4285F4"/>
<path fill-rule="evenodd" clip-rule="evenodd" d="M12.4996 21.7846C15.8746 21.7846 18.7041 20.8189 20.7723 19.1719L16.7325 16.466C15.6132 17.113 14.1814 17.4954 12.4996 17.4954C9.24387 17.4954 6.48819 15.5983 5.50524 13.0493H1.3291V15.8434C3.38592 19.3679 7.61319 21.7846 12.4996 21.7846Z" fill="#34A853"/>
<path fill-rule="evenodd" clip-rule="evenodd" d="M5.50568 13.0494C5.25568 12.4023 5.11364 11.7111 5.11364 11.0004C5.11364 10.2896 5.25568 9.5984 5.50568 8.95134V6.15723H1.32955C0.482954 7.61311 0 9.26017 0 11.0004C0 12.7406 0.482954 14.3876 1.32955 15.8435L5.50568 13.0494Z" fill="#FBBC05"/>
<path fill-rule="evenodd" clip-rule="evenodd" d="M12.4996 4.50504C14.3348 4.50504 15.9825 5.04915 17.278 6.11778L20.8632 3.02464C18.6984 1.28445 15.8689 0.21582 12.4996 0.21582C7.61319 0.21582 3.38592 2.63249 1.3291 6.157L5.50524 8.95111C6.48819 6.40209 9.24387 4.50504 12.4996 4.50504Z" fill="#EA4335"/>
</svg>
