<svg width="273" height="41" viewBox="0 0 273 41" fill="none" xmlns="http://www.w3.org/2000/svg">
<path d="M0.291016 32V-9.53674e-07H5.11914V27.8438H19.6191V32H0.291016ZM35.0957 32.4844C32.7311 32.4844 30.6947 31.9792 28.9863 30.9688C27.2884 29.9479 25.9759 28.5156 25.0488 26.6719C24.1322 24.8177 23.6738 22.6458 23.6738 20.1562C23.6738 17.6979 24.1322 15.5312 25.0488 13.6562C25.9759 11.7812 27.2676 10.3177 28.9238 9.26562C30.5905 8.21354 32.5384 7.6875 34.7676 7.6875C36.1217 7.6875 37.4342 7.91146 38.7051 8.35937C39.9759 8.80729 41.1165 9.51042 42.127 10.4687C43.1374 11.4271 43.9342 12.6719 44.5176 14.2031C45.1009 15.724 45.3926 17.5729 45.3926 19.75V21.4062H26.3145V17.9062H40.8145C40.8145 16.6771 40.5645 15.5885 40.0645 14.6406C39.5645 13.6823 38.8613 12.9271 37.9551 12.375C37.0592 11.8229 36.0072 11.5469 34.7988 11.5469C33.4863 11.5469 32.3405 11.8698 31.3613 12.5156C30.3926 13.151 29.6426 13.9844 29.1113 15.0156C28.5905 16.0365 28.3301 17.1458 28.3301 18.3438V21.0781C28.3301 22.6823 28.6113 24.0469 29.1738 25.1719C29.7467 26.2969 30.5436 27.1562 31.5645 27.75C32.5853 28.3333 33.778 28.625 35.1426 28.625C36.028 28.625 36.8353 28.5 37.5645 28.25C38.2936 27.9896 38.9238 27.6042 39.4551 27.0937C39.9863 26.5833 40.3926 25.9531 40.6738 25.2031L45.0957 26C44.7415 27.3021 44.1061 28.4427 43.1895 29.4219C42.2832 30.3906 41.1426 31.1458 39.7676 31.6875C38.403 32.2188 36.8457 32.4844 35.0957 32.4844ZM57.5605 32.5313C56.0397 32.5313 54.6647 32.25 53.4355 31.6875C52.2064 31.1146 51.2324 30.2865 50.5137 29.2031C49.8053 28.1198 49.4512 26.7917 49.4512 25.2187C49.4512 23.8646 49.7116 22.75 50.2324 21.875C50.7533 21 51.4564 20.3073 52.3418 19.7969C53.2272 19.2865 54.2168 18.901 55.3105 18.6406C56.4043 18.3802 57.5189 18.1823 58.6543 18.0469C60.0918 17.8802 61.2585 17.7448 62.1543 17.6406C63.0501 17.526 63.7012 17.3437 64.1074 17.0938C64.5137 16.8437 64.7168 16.4375 64.7168 15.875V15.7656C64.7168 14.401 64.3314 13.3437 63.5605 12.5937C62.8001 11.8437 61.6647 11.4687 60.1543 11.4687C58.5814 11.4687 57.3418 11.8177 56.4355 12.5156C55.5397 13.2031 54.9199 13.9687 54.5762 14.8125L50.1855 13.8125C50.7064 12.3542 51.4668 11.1771 52.4668 10.2812C53.4772 9.375 54.6387 8.71875 55.9512 8.3125C57.2637 7.89583 58.6439 7.6875 60.0918 7.6875C61.0501 7.6875 62.0658 7.80208 63.1387 8.03125C64.222 8.25 65.2324 8.65625 66.1699 9.25C67.1178 9.84375 67.8939 10.6927 68.498 11.7969C69.1022 12.8906 69.4043 14.3125 69.4043 16.0625V32H64.8418V28.7187H64.6543C64.3522 29.3229 63.8991 29.9167 63.2949 30.5C62.6908 31.0833 61.9147 31.5677 60.9668 31.9531C60.0189 32.3385 58.8835 32.5313 57.5605 32.5313ZM58.5762 28.7812C59.8678 28.7812 60.972 28.526 61.8887 28.0156C62.8158 27.5052 63.5189 26.8385 63.998 26.0156C64.4876 25.1823 64.7324 24.2917 64.7324 23.3438V20.25C64.5658 20.4167 64.2428 20.5729 63.7637 20.7187C63.2949 20.8542 62.7585 20.974 62.1543 21.0781C61.5501 21.1719 60.9616 21.2604 60.3887 21.3438C59.8158 21.4167 59.3366 21.4792 58.9512 21.5312C58.0449 21.6458 57.2168 21.8385 56.4668 22.1094C55.7272 22.3802 55.1335 22.7708 54.6855 23.2812C54.248 23.7812 54.0293 24.4479 54.0293 25.2812C54.0293 26.4375 54.4564 27.3125 55.3105 27.9062C56.1647 28.4896 57.2533 28.7812 58.5762 28.7812ZM75.627 32V8H80.1426V11.8125H80.3926C80.8301 10.5208 81.6009 9.50521 82.7051 8.76562C83.8197 8.01562 85.0801 7.64062 86.4863 7.64062C86.778 7.64062 87.1217 7.65104 87.5176 7.67187C87.9238 7.69271 88.2415 7.71875 88.4707 7.75V12.2187C88.2832 12.1667 87.9499 12.1094 87.4707 12.0469C86.9915 11.974 86.5124 11.9375 86.0332 11.9375C84.929 11.9375 83.9447 12.1719 83.0801 12.6406C82.2259 13.099 81.5488 13.7396 81.0488 14.5625C80.5488 15.375 80.2988 16.3021 80.2988 17.3437V32H75.627ZM97.1855 17.75V32H92.5137V8H96.998V11.9062H97.2949C97.847 10.6354 98.7116 9.61458 99.8887 8.84375C101.076 8.07292 102.571 7.6875 104.373 7.6875C106.008 7.6875 107.441 8.03125 108.67 8.71875C109.899 9.39583 110.852 10.4062 111.529 11.75C112.206 13.0937 112.545 14.7552 112.545 16.7344V32H107.873V17.2969C107.873 15.5573 107.42 14.1979 106.514 13.2187C105.607 12.2292 104.363 11.7344 102.779 11.7344C101.696 11.7344 100.732 11.9687 99.8887 12.4375C99.0553 12.9062 98.3939 13.5937 97.9043 14.5C97.4251 15.3958 97.1855 16.4792 97.1855 17.75ZM136.795 13.8594L132.561 14.6094C132.383 14.0677 132.102 13.5521 131.717 13.0625C131.342 12.5729 130.831 12.1719 130.186 11.8594C129.54 11.5469 128.732 11.3906 127.764 11.3906C126.441 11.3906 125.337 11.6875 124.451 12.2812C123.566 12.8646 123.123 13.6198 123.123 14.5469C123.123 15.349 123.42 15.9948 124.014 16.4844C124.607 16.974 125.566 17.375 126.889 17.6875L130.701 18.5625C132.91 19.0729 134.555 19.8594 135.639 20.9219C136.722 21.9844 137.264 23.3646 137.264 25.0625C137.264 26.5 136.847 27.7812 136.014 28.9062C135.191 30.0208 134.04 30.8958 132.561 31.5312C131.092 32.1667 129.389 32.4844 127.451 32.4844C124.764 32.4844 122.571 31.9115 120.873 30.7656C119.175 29.6094 118.133 27.9687 117.748 25.8437L122.264 25.1562C122.545 26.3333 123.123 27.224 123.998 27.8281C124.873 28.4219 126.014 28.7187 127.42 28.7187C128.951 28.7187 130.175 28.401 131.092 27.7656C132.008 27.1198 132.467 26.3333 132.467 25.4063C132.467 24.6562 132.186 24.026 131.623 23.5156C131.071 23.0052 130.222 22.6198 129.076 22.3594L125.014 21.4687C122.774 20.9583 121.118 20.1458 120.045 19.0313C118.982 17.9167 118.451 16.5052 118.451 14.7969C118.451 13.3802 118.847 12.1406 119.639 11.0781C120.43 10.0156 121.524 9.1875 122.92 8.59375C124.316 7.98958 125.915 7.6875 127.717 7.6875C130.311 7.6875 132.352 8.25 133.842 9.375C135.331 10.4896 136.316 11.9844 136.795 13.8594ZM142.775 32V-9.53674e-07H154.494C156.765 -9.53674e-07 158.645 0.374999 160.135 1.125C161.624 1.86458 162.739 2.86979 163.479 4.14062C164.218 5.40104 164.588 6.82292 164.588 8.40625C164.588 9.73958 164.343 10.8646 163.854 11.7812C163.364 12.6875 162.708 13.4167 161.885 13.9687C161.072 14.5104 160.176 14.9062 159.197 15.1562V15.4687C160.26 15.5208 161.296 15.8646 162.307 16.5C163.327 17.125 164.171 18.0156 164.838 19.1719C165.505 20.3281 165.838 21.7344 165.838 23.3906C165.838 25.026 165.452 26.4948 164.682 27.7969C163.921 29.0885 162.744 30.1146 161.15 30.875C159.557 31.625 157.52 32 155.041 32H142.775ZM147.604 27.8594H154.572C156.885 27.8594 158.541 27.4115 159.541 26.5156C160.541 25.6198 161.041 24.5 161.041 23.1562C161.041 22.1458 160.786 21.2187 160.275 20.375C159.765 19.5312 159.036 18.8594 158.088 18.3594C157.15 17.8594 156.036 17.6094 154.744 17.6094H147.604V27.8594ZM147.604 13.8437H154.072C155.156 13.8437 156.13 13.6354 156.994 13.2187C157.869 12.8021 158.562 12.2187 159.072 11.4687C159.593 10.7083 159.854 9.8125 159.854 8.78125C159.854 7.45833 159.39 6.34896 158.463 5.45313C157.536 4.55729 156.114 4.10937 154.197 4.10937H147.604V13.8437ZM186.393 22.0469V8H191.08V32H186.486V27.8438H186.236C185.684 29.125 184.799 30.1927 183.58 31.0469C182.372 31.8906 180.867 32.3125 179.064 32.3125C177.523 32.3125 176.158 31.974 174.971 31.2969C173.794 30.6094 172.867 29.5938 172.189 28.25C171.523 26.9062 171.189 25.2448 171.189 23.2656V8H175.861V22.7031C175.861 24.3385 176.314 25.6406 177.221 26.6094C178.127 27.5781 179.304 28.0625 180.752 28.0625C181.627 28.0625 182.497 27.8437 183.361 27.4062C184.236 26.9687 184.96 26.3073 185.533 25.4219C186.117 24.5365 186.403 23.4115 186.393 22.0469ZM206.342 32.4688C204.404 32.4688 202.675 31.974 201.154 30.9844C199.644 29.9844 198.456 28.5625 197.592 26.7187C196.738 24.8646 196.311 22.6406 196.311 20.0469C196.311 17.4531 196.743 15.2344 197.607 13.3906C198.482 11.5469 199.68 10.1354 201.201 9.15625C202.722 8.17708 204.446 7.6875 206.373 7.6875C207.863 7.6875 209.061 7.9375 209.967 8.4375C210.883 8.92708 211.592 9.5 212.092 10.1562C212.602 10.8125 212.998 11.3906 213.279 11.8906H213.561V-9.53674e-07H218.232V32H213.67V28.2656H213.279C212.998 28.776 212.592 29.3594 212.061 30.0156C211.54 30.6719 210.821 31.2448 209.904 31.7344C208.988 32.224 207.8 32.4688 206.342 32.4688ZM207.373 28.4844C208.717 28.4844 209.852 28.1302 210.779 27.4219C211.717 26.7031 212.425 25.7083 212.904 24.4375C213.394 23.1667 213.639 21.6875 213.639 20C213.639 18.3333 213.399 16.875 212.92 15.625C212.441 14.375 211.738 13.401 210.811 12.7031C209.883 12.0052 208.738 11.6562 207.373 11.6562C205.967 11.6562 204.795 12.0208 203.857 12.75C202.92 13.4792 202.212 14.474 201.732 15.7344C201.264 16.9948 201.029 18.4167 201.029 20C201.029 21.6042 201.269 23.0469 201.748 24.3281C202.227 25.6094 202.936 26.625 203.873 27.375C204.821 28.1146 205.988 28.4844 207.373 28.4844ZM233.885 32.4688C231.947 32.4688 230.218 31.974 228.697 30.9844C227.187 29.9844 225.999 28.5625 225.135 26.7187C224.281 24.8646 223.854 22.6406 223.854 20.0469C223.854 17.4531 224.286 15.2344 225.15 13.3906C226.025 11.5469 227.223 10.1354 228.744 9.15625C230.265 8.17708 231.989 7.6875 233.916 7.6875C235.406 7.6875 236.604 7.9375 237.51 8.4375C238.426 8.92708 239.135 9.5 239.635 10.1562C240.145 10.8125 240.541 11.3906 240.822 11.8906H241.104V-9.53674e-07H245.775V32H241.213V28.2656H240.822C240.541 28.776 240.135 29.3594 239.604 30.0156C239.083 30.6719 238.364 31.2448 237.447 31.7344C236.531 32.224 235.343 32.4688 233.885 32.4688ZM234.916 28.4844C236.26 28.4844 237.395 28.1302 238.322 27.4219C239.26 26.7031 239.968 25.7083 240.447 24.4375C240.937 23.1667 241.182 21.6875 241.182 20C241.182 18.3333 240.942 16.875 240.463 15.625C239.984 14.375 239.281 13.401 238.354 12.7031C237.426 12.0052 236.281 11.6562 234.916 11.6562C233.51 11.6562 232.338 12.0208 231.4 12.75C230.463 13.4792 229.755 14.474 229.275 15.7344C228.807 16.9948 228.572 18.4167 228.572 20C228.572 21.6042 228.812 23.0469 229.291 24.3281C229.77 25.6094 230.479 26.625 231.416 27.375C232.364 28.1146 233.531 28.4844 234.916 28.4844ZM255.396 41C254.699 41 254.063 40.9427 253.49 40.8281C252.917 40.724 252.49 40.6094 252.209 40.4844L253.334 36.6563C254.188 36.8854 254.949 36.9844 255.615 36.9531C256.282 36.9219 256.87 36.6719 257.381 36.2031C257.902 35.7344 258.36 34.9687 258.756 33.9062L259.334 32.3125L250.553 8H255.553L261.631 26.625H261.881L267.959 8H272.975L263.084 35.2031C262.626 36.4531 262.042 37.5104 261.334 38.375C260.626 39.25 259.782 39.9063 258.803 40.3438C257.824 40.7813 256.688 41 255.396 41Z" fill="white" fill-opacity="0.3"/>
</svg>
