<svg width="50" height="50" viewBox="0 0 50 50" fill="none" xmlns="http://www.w3.org/2000/svg">
<path d="M25 47.3214C18.6865 47.3214 8.66162 43.125 7.32233 36.1607C7.39733 31.1607 20 27.25 25 27.25C30 27.25 43.675 31.1607 43.75 36.1607C43.75 39.1071 38.3543 43.372 35.2679 44.6429C27.6786 47.7679 25.4464 47.3214 25 47.3214ZM25 7.5C26.9891 7.5 28.8968 8.29018 30.3033 9.6967C31.7098 11.1032 32.5 13.0109 32.5 15C32.5 16.9891 31.7098 18.8968 30.3033 20.3033C28.8968 21.7098 26.9891 22.5 25 22.5C23.0109 22.5 21.1032 21.7098 19.6967 20.3033C18.2902 18.8968 17.5 16.9891 17.5 15C17.5 13.0109 18.2902 11.1032 19.6967 9.6967C21.1032 8.29018 23.0109 7.5 25 7.5ZM25 0C21.717 0 18.4661 0.646644 15.4329 1.90301C12.3998 3.15938 9.64379 5.00087 7.32233 7.32233C2.63392 12.0107 0 18.3696 0 25C0 31.6304 2.63392 37.9893 7.32233 42.6777C9.64379 44.9991 12.3998 46.8406 15.4329 48.097C18.4661 49.3534 21.717 50 25 50C31.6304 50 37.9893 47.3661 42.6777 42.6777C47.3661 37.9893 50 31.6304 50 25C50 11.175 38.75 0 25 0Z" fill="#CECECE"/>
</svg>
