<svg width="12" height="12" viewBox="0 0 12 12" fill="none" xmlns="http://www.w3.org/2000/svg">
<path d="M6 12C9.27658 12 12 9.51831 12 6.52095C12 3.87814 9.88246 1.63802 7.1352 1.14411V0.380904C7.1352 -0.00047059 6.84707 -0.10269 6.52355 0.10702L4.64695 1.30478C4.38241 1.47667 4.37639 1.73451 4.64695 1.9119L6.51753 3.11516C6.84707 3.32991 7.1352 3.22792 7.1352 2.84105V2.07325C9.35891 2.53508 10.9941 4.34546 10.9941 6.52095C10.9968 7.12079 10.8695 7.71519 10.6196 8.26992C10.3696 8.82465 10.002 9.32874 9.53776 9.75315C9.07356 10.1776 8.52198 10.5139 7.91481 10.7428C7.30764 10.9717 6.65688 11.0887 6 11.0869C3.22338 11.0869 0.994144 9.05626 0.999916 6.52095C1.00569 4.99545 1.81762 3.64711 3.07053 2.83073C3.31172 2.66411 3.38827 2.41154 3.23517 2.18602C3.09412 1.96599 2.7706 1.90663 2.51159 2.0893C0.994144 3.09384 0 4.71606 0 6.52095C0 9.51831 2.71764 12 6 12Z" fill="#A29D9D"/>
</svg>
