<svg width="88" height="88" viewBox="0 0 88 88" fill="none" xmlns="http://www.w3.org/2000/svg">
<g clip-path="url(#clip0_1576_3501)">
<path d="M43.9984 83.5999C65.8689 83.5999 83.5984 65.8704 83.5984 43.9999C83.5984 22.1294 65.8689 4.3999 43.9984 4.3999C22.128 4.3999 4.39844 22.1294 4.39844 43.9999C4.39844 65.8704 22.128 83.5999 43.9984 83.5999Z" fill="white"/>
<path d="M44 88C68.3004 88 88 68.3004 88 44C88 19.6996 68.3004 0 44 0C19.6996 0 0 19.6996 0 44C0 68.3004 19.6996 88 44 88ZM44 79.2C24.5596 79.2 8.8 63.4404 8.8 44C8.8 24.5596 24.5596 8.8 44 8.8C63.4404 8.8 79.2 24.5596 79.2 44C79.2 63.4404 63.4404 79.2 44 79.2Z" fill="#7671F4"/>
<path d="M33.4417 33.44C33.4417 22.88 54.5617 20.24 53.6817 31.68C53.6817 39.6 39.6017 43.12 39.6017 51.92V58.0801H48.4017V54.56C48.4017 46.64 63.3617 44 63.3617 30.8C61.6017 11.44 23.7617 11.44 23.7617 33.44H33.4417ZM39.6017 61.6H48.4017V70.4H39.6017V61.6Z" fill="#7671F4"/>
</g>
<defs>
<clipPath id="clip0_1576_3501">
<rect width="88" height="88" fill="white"/>
</clipPath>
</defs>
</svg>
